<svg xmlns="http://www.w3.org/2000/svg" width="70.5" height="70.5">
    <path fill="none" fill-rule="evenodd" stroke="#C6CFD2" stroke-width="3" d="M34.5 1.998c17.95 0 32.501 14.551 32.501 32.501C67.001 52.449 52.45 67 34.5 67 16.55 67 1.999 52.449 1.999 34.499c0-17.95 14.551-32.501 32.501-32.501z"/>
    <path fill="#C6CFD2" fill-rule="evenodd" d="M23.449 34.499c0 .819.667 1.486 1.488 1.486h16.138l-6.386 6.376c-.579.58-.579 1.522 0 2.102.58.579 1.525.579 2.104 0l8.926-8.915c.003-.003.003-.009.009-.012.131-.134.241-.295.313-.47.151-.361.151-.773 0-1.134-.075-.182-.185-.344-.322-.482l-8.926-8.915c-.579-.579-1.524-.579-2.104 0-.579.579-.579 1.522 0 2.101l6.386 6.377H24.937c-.821 0-1.488.666-1.488 1.486z"/>
</svg>
