<svg xmlns="http://www.w3.org/2000/svg" width="70.5" height="70.5">
    <path fill="none" fill-rule="evenodd" stroke="#C6CFD2" stroke-width="3" d="M34.5 1.998c-17.95 0-32.501 14.551-32.501 32.501C1.999 52.449 16.55 67 34.5 67c17.95 0 32.501-14.551 32.501-32.501 0-17.95-14.551-32.501-32.501-32.501z"/>
    <path fill="#C6CFD2" fill-rule="evenodd" d="M45.55 34.499c0 .819-.666 1.486-1.487 1.486H27.925l6.385 6.376c.58.58.58 1.522 0 2.102-.579.579-1.524.579-2.103 0l-8.927-8.915c-.003-.003-.003-.009-.008-.012-.131-.134-.242-.295-.313-.47-.151-.361-.151-.773 0-1.134.074-.182.185-.344.321-.482l8.927-8.915c.579-.579 1.524-.579 2.103 0 .58.579.58 1.522 0 2.101l-6.385 6.377h16.138c.821 0 1.487.666 1.487 1.486z"/>
</svg>
