<svg xmlns="http://www.w3.org/2000/svg" width="68" height="68"><path fill="#18A3DD" fill-rule="evenodd" d="M34 68C15.222 68 0 52.778 0 34S15.222 0 34 0s34 15.222 34 34-15.222 34-34 34zm12.878-35.654c-.786-.06-1.33-.25-1.632-.567-.302-.317-.453-.884-.453-1.7v-4.623c0-3.384-1.028-5.924-3.083-7.617-2.055-1.692-4.986-2.538-8.794-2.538-4.02 0-7.601 1.013-10.744 3.037l2.493 5.349c1.27-.846 2.478-1.488 3.627-1.926 1.148-.438 2.403-.657 3.762-.657 1.451 0 2.501.271 3.151.816.65.544.975 1.375.975 2.492v.726c-1.269-.603-2.872-.907-4.805-.907-1.512 0-2.895.198-4.149.59-1.254.393-2.334.952-3.24 1.678a7.953 7.953 0 00-2.132 2.583c-.514.997-.77 2.101-.77 3.31 0 1.087.212 2.101.635 3.037a7.375 7.375 0 001.745 2.425c.741.68 1.624 1.217 2.652 1.609a9.205 9.205 0 003.309.589 9.638 9.638 0 004.443-1.065c1.39-.709 2.613-1.746 3.672-3.105l.181.861c.242 1.088.763 1.912 1.564 2.471.8.558 1.972.838 3.513.838.544 0 1.164-.038 1.859-.113a27.95 27.95 0 002.221-.341v-7.252zm.037 12.736H21.401v7.617h25.514v-7.617zM35.047 32.98a5.706 5.706 0 01-1.451.657 5.359 5.359 0 01-1.587.249c-.816 0-1.489-.21-2.017-.633-.529-.423-.794-.967-.794-1.632 0-.785.348-1.436 1.043-1.95.695-.513 1.571-.771 2.63-.771.483 0 1.026.062 1.631.182.605.121 1.163.272 1.678.453v1.768c0 .302-.106.597-.317.885a3.714 3.714 0 01-.816.792z"/></svg>